<svg width="256" height="111" viewBox="0 0 256 111" fill="none" xmlns="http://www.w3.org/2000/svg">
<path d="M14.0474 108.863C20.52 107.817 16.4528 96.3458 15.5474 84.8626C22.2442 102.54 26.0962 112.226 41.5474 108.863C47.9395 105.61 37.9704 94.1499 29.5474 80.3626C38.2228 66.6266 46.4757 56.6096 40.5474 52.8626C33.8249 52.6262 29.1715 51.6572 25.5474 54.3626L15.5474 75.8626C16.6131 64.7475 20.4742 54.3053 14.0474 52.8626C7.21458 53.5049 0.538126 51.1303 0.0474181 57.8626C0.626427 81.2293 -1.62011 109.211 3.04742 108.863H14.0474Z" fill="#ED600A"/>
<path d="M177.047 109.863C183.52 108.817 179.453 97.3458 178.547 85.8626C185.244 103.54 189.096 113.226 204.547 109.863C210.939 106.61 200.97 95.1499 192.547 81.3626C201.223 67.6266 209.476 57.6096 203.547 53.8626C196.825 53.6262 192.172 52.6572 188.547 55.3626L178.547 76.8626C179.613 65.7475 183.474 55.3053 177.047 53.8626C170.215 54.5049 163.538 52.1303 163.047 58.8626C163.626 82.2293 161.38 110.211 166.047 109.863H177.047Z" fill="#ED600A"/>
<path fill-rule="evenodd" clip-rule="evenodd" d="M66.3901 110C56.608 109.695 52.1895 106.944 46.3901 97C43.1108 84.2994 43.2971 77.0635 46.3901 64C51.1105 56.786 55.5641 54.3636 66.3901 52.5C77.6475 54.4323 81.4417 57.2717 85.8901 64C89.7782 77.5848 90.1632 84.8436 86.3901 97C80.9047 107.293 76.0895 109.168 66.3901 110ZM60.39 81C61.7494 91.506 62.9081 95.2311 66.3901 94.5C70.3618 94.9866 71.389 91.4343 71.8901 81C71.0802 71.3524 70.0535 67.8943 66.3901 68C61.8498 67.1767 61.057 71.4217 60.39 81Z" fill="#ED600A"/>
<path d="M95 58.0393C96.1061 80.3324 93.6853 108.89 99 109.039H153.5C158.807 110.179 156.218 81.0689 157 58.0393C153.85 52.0251 149.756 53.5433 143.5 54.0393C138.935 56.681 140.849 75.2651 140.5 94.0393H135L134.5 58.0393C133.397 53.0769 128.369 54.0707 121.5 54.0393C116.456 53.9713 118.047 73.8516 117.5 94.0393H112C111.458 75.1488 113.504 55.3004 108.5 54.0393C101.556 54.0943 95.4491 52.1329 95 58.0393Z" fill="#ED600A"/>
<path d="M214 109.091C208.522 109.119 210.963 81.0613 210 58.0912C210.344 52.9898 216.366 54.2496 223 53.5912C228.16 54.4915 225.647 82.0158 224.761 88.6819C226.423 81.6749 235.616 51.6368 242.5 53.5912C249.526 54.2077 254.815 53.3375 255 60.0912C254.397 82.8138 257.682 109.136 251 109.091C244.581 108.515 238.512 110.403 238.5 104.091C238.5 104.091 242 71.5911 241 74.0912C240 76.5912 230.491 109.307 225 109.091H214Z" fill="#ED600A"/>
<path d="M9 42H14V26L24 42L28.5 39L19.5 19.5L26.5 6.5L22.5 3.5L14 18V5H9V42Z" fill="#ED600A"/>
<path d="M88 42H93.5L91.5 15.5L97 23.5L101.5 16L103.5 41.5L108.5 41L106.5 1.5H102L97 12L91.5 3H86L88 42Z" fill="#ED600A"/>
<path d="M140.5 42H146L147 26.5H152.5V42H157.5L158 4H153V19.5H147L146 4H141L140.5 42Z" fill="#ED600A"/>
<path d="M166 4L165 42H171V26.5H177.5V42L182.5 41.5L183.5 4H179L177.5 19H171V4H166Z" fill="#ED600A"/>
<path d="M216.5 42.5H212V3.5H217L216.5 42.5Z" fill="#ED600A"/>
<path d="M225.5 42.5L243 42V36.5H231V27H237.5V20.5H230.5V13L241 12.5V6L223.5 7L225.5 42.5Z" fill="#ED600A"/>
<path fill-rule="evenodd" clip-rule="evenodd" d="M62.5 42L60.5 4L75 5C77.6707 5.63995 78.5835 7.16793 79.5 11.5L79 22C78.2849 24.8171 77.2167 25.882 73 26C70.3678 26.5425 69.2391 27.3209 69 30V42H62.5ZM72.5 19L67.5 19.5V10.5H72.5V19Z" fill="#ED600A"/>
<path fill-rule="evenodd" clip-rule="evenodd" d="M34.5 42L38 6.5C41.7968 1.9115 44.2062 1.91082 49 6.5L54 42H48.5L46.5 32H42L41 42H34.5ZM43.5 11.5L46 25H41L43.5 11.5Z" fill="#ED600A"/>
<path fill-rule="evenodd" clip-rule="evenodd" d="M114.5 42H121L122 32.5H127L128.5 42H134L128.5 5C123.847 1.40129 121.511 1.37905 118 5.5L114.5 42ZM127 25.5H121.5L124 11.5L127 25.5Z" fill="#ED600A"/>
<path fill-rule="evenodd" clip-rule="evenodd" d="M189.5 5H194L196 22L205.5 23V41.5L191.5 42L189.5 5ZM196 37V29H201.5V37H196Z" fill="#ED600A"/>
<path d="M9 42H14V26L24 42L28.5 39L19.5 19.5L26.5 6.5L22.5 3.5L14 18V5H9V42Z" stroke="#ED600A" stroke-width="3"/>
<path d="M88 42H93.5L91.5 15.5L97 23.5L101.5 16L103.5 41.5L108.5 41L106.5 1.5H102L97 12L91.5 3H86L88 42Z" stroke="#ED600A" stroke-width="3"/>
<path d="M140.5 42H146L147 26.5H152.5V42H157.5L158 4H153V19.5H147L146 4H141L140.5 42Z" stroke="#ED600A" stroke-width="3"/>
<path d="M166 4L165 42H171V26.5H177.5V42L182.5 41.5L183.5 4H179L177.5 19H171V4H166Z" stroke="#ED600A" stroke-width="3"/>
<path d="M216.5 42.5H212V3.5H217L216.5 42.5Z" stroke="#ED600A" stroke-width="3"/>
<path d="M225.5 42.5L243 42V36.5H231V27H237.5V20.5H230.5V13L241 12.5V6L223.5 7L225.5 42.5Z" stroke="#ED600A" stroke-width="3"/>
<path fill-rule="evenodd" clip-rule="evenodd" d="M62.5 42L60.5 4L75 5C77.6707 5.63995 78.5835 7.16793 79.5 11.5L79 22C78.2849 24.8171 77.2167 25.882 73 26C70.3678 26.5425 69.2391 27.3209 69 30V42H62.5ZM72.5 19L67.5 19.5V10.5H72.5V19Z" stroke="#ED600A" stroke-width="3"/>
<path fill-rule="evenodd" clip-rule="evenodd" d="M34.5 42L38 6.5C41.7968 1.9115 44.2062 1.91082 49 6.5L54 42H48.5L46.5 32H42L41 42H34.5ZM43.5 11.5L46 25H41L43.5 11.5Z" stroke="#ED600A" stroke-width="3"/>
<path fill-rule="evenodd" clip-rule="evenodd" d="M114.5 42H121L122 32.5H127L128.5 42H134L128.5 5C123.847 1.40129 121.511 1.37905 118 5.5L114.5 42ZM127 25.5H121.5L124 11.5L127 25.5Z" stroke="#ED600A" stroke-width="3"/>
<path fill-rule="evenodd" clip-rule="evenodd" d="M189.5 5H194L196 22L205.5 23V41.5L191.5 42L189.5 5ZM196 37V29H201.5V37H196Z" stroke="#ED600A" stroke-width="3"/>
</svg>
