<svg width="178" height="182" viewBox="0 0 178 182" fill="none" xmlns="http://www.w3.org/2000/svg">
<rect x="1.5" y="1.5" width="27" height="27" rx="3.5" stroke="white" stroke-width="3"/>
<rect x="38.5" y="1.5" width="27" height="27" rx="3.5" stroke="white" stroke-width="3"/>
<rect x="149.5" y="1.5" width="27" height="27" rx="3.5" stroke="white" stroke-width="3"/>
<rect x="75.5" y="1.5" width="27" height="27" rx="3.5" stroke="white" stroke-width="3"/>
<rect x="112.5" y="1.5" width="27" height="27" rx="3.5" stroke="white" stroke-width="3"/>
<rect x="1.5" y="153.5" width="27" height="27" rx="3.5" fill="#FAE897" stroke="white" stroke-width="3"/>
<rect x="38.5" y="153.5" width="27" height="27" rx="3.5" fill="#7EA271" stroke="white" stroke-width="3"/>
<rect x="149.5" y="153.5" width="27" height="27" rx="3.5" stroke="white" stroke-width="3"/>
<rect x="75.5" y="153.5" width="27" height="27" rx="3.5" stroke="white" stroke-width="3"/>
<rect x="112.5" y="153.5" width="27" height="27" rx="3.5" stroke="white" stroke-width="3"/>
<rect x="1.5" y="115.5" width="27" height="27" rx="3.5" fill="#7EA271" stroke="white" stroke-width="3"/>
<rect x="38.5" y="115.5" width="27" height="27" rx="3.5" fill="#7EA271" stroke="white" stroke-width="3"/>
<rect x="149.5" y="115.5" width="27" height="27" rx="3.5" stroke="white" stroke-width="3"/>
<rect x="75.5" y="115.5" width="27" height="27" rx="3.5" stroke="white" stroke-width="3"/>
<rect x="112.5" y="115.5" width="27" height="27" rx="3.5" stroke="white" stroke-width="3"/>
<rect x="1.5" y="77.5" width="27" height="27" rx="3.5" stroke="white" stroke-width="3"/>
<rect x="38.5" y="77.5" width="27" height="27" rx="3.5" stroke="white" stroke-width="3"/>
<rect x="149.5" y="77.5" width="27" height="27" rx="3.5" stroke="white" stroke-width="3"/>
<rect x="75.5" y="77.5" width="27" height="27" rx="3.5" stroke="white" stroke-width="3"/>
<rect x="112.5" y="77.5" width="27" height="27" rx="3.5" stroke="white" stroke-width="3"/>
<rect x="1.5" y="39.5" width="27" height="27" rx="3.5" stroke="white" stroke-width="3"/>
<rect x="38.5" y="39.5" width="27" height="27" rx="3.5" stroke="white" stroke-width="3"/>
<rect x="149.5" y="39.5" width="27" height="27" rx="3.5" stroke="white" stroke-width="3"/>
<rect x="75.5" y="39.5" width="27" height="27" rx="3.5" stroke="white" stroke-width="3"/>
<rect x="112.5" y="39.5" width="27" height="27" rx="3.5" stroke="white" stroke-width="3"/>
</svg>
