<svg width="259" height="113" viewBox="0 0 259 113" fill="none" xmlns="http://www.w3.org/2000/svg">
<path d="M16.0474 109.363C22.52 108.317 18.4528 96.8458 17.5474 85.3626C24.2442 103.04 28.0962 112.726 43.5474 109.363C49.9395 106.11 39.9704 94.6499 31.5474 80.8626C40.2228 67.1266 48.4757 57.1096 42.5474 53.3626C35.8249 53.1262 31.1715 52.1572 27.5474 54.8626L17.5474 76.3626C18.6131 65.2475 22.4742 54.8053 16.0474 53.3626C9.21458 54.0049 2.53813 51.6303 2.04742 58.3626C2.62643 81.7293 0.379894 109.711 5.04742 109.363H16.0474Z" fill="#ED600A" stroke="white" stroke-width="3"/>
<path d="M179.047 110.363C185.52 109.317 181.453 97.8458 180.547 86.3626C187.244 104.04 191.096 113.726 206.547 110.363C212.939 107.11 202.97 95.6499 194.547 81.8626C203.223 68.1266 211.476 58.1096 205.547 54.3626C198.825 54.1262 194.172 53.1572 190.547 55.8626L180.547 77.3626C181.613 66.2475 185.474 55.8053 179.047 54.3626C172.215 55.0049 165.538 52.6303 165.047 59.3626C165.626 82.7293 163.38 110.711 168.047 110.363H179.047Z" fill="#ED600A" stroke="white" stroke-width="3"/>
<path fill-rule="evenodd" clip-rule="evenodd" d="M68.3901 110.5C58.608 110.195 54.1895 107.444 48.3901 97.5C45.1108 84.7994 45.2971 77.5635 48.3901 64.5C53.1105 57.286 57.5641 54.8636 68.3901 53C79.6475 54.9323 83.4417 57.7717 87.8901 64.5C91.7782 78.0848 92.1632 85.3436 88.3901 97.5C82.9047 107.793 78.0895 109.668 68.3901 110.5ZM62.39 81.5C63.7494 92.006 64.9081 95.7311 68.3901 95C72.3618 95.4866 73.389 91.9343 73.8901 81.5C73.0802 71.8524 72.0535 68.3943 68.3901 68.5C63.8498 67.6767 63.057 71.9217 62.39 81.5Z" fill="#ED600A" stroke="white" stroke-width="3"/>
<path d="M97 58.5393C98.1061 80.8324 95.6853 109.39 101 109.539H155.5C160.807 110.679 158.218 81.5689 159 58.5393C155.85 52.5251 151.756 54.0433 145.5 54.5393C140.935 57.181 142.849 75.7651 142.5 94.5393H137L136.5 58.5393C135.397 53.5769 130.369 54.5707 123.5 54.5393C118.456 54.4713 120.047 74.3516 119.5 94.5393H114C113.458 75.6488 115.504 55.8004 110.5 54.5393C103.556 54.5943 97.4491 52.6329 97 58.5393Z" fill="#ED600A" stroke="white" stroke-width="3"/>
<path d="M216 109.591C210.522 109.619 212.963 81.5613 212 58.5912C212.344 53.4898 218.366 54.7496 225 54.0912C230.16 54.9915 227.647 82.5158 226.761 89.1819C228.423 82.1749 237.616 52.1368 244.5 54.0912C251.526 54.7077 256.815 53.8375 257 60.5912C256.397 83.3138 259.682 109.636 253 109.591C246.581 109.015 240.512 110.903 240.5 104.591C240.5 104.591 244 72.0911 243 74.5912C242 77.0912 232.491 109.807 227 109.591H216Z" fill="#ED600A"/>
<path d="M216 109.591C210.522 109.619 212.963 81.5613 212 58.5912C212.344 53.4898 218.366 54.7496 225 54.0912C230.977 55.134 226.659 91.8993 226.5 90.5912C226.341 89.283 236.847 51.9186 244.5 54.0912C251.526 54.7077 256.815 53.8375 257 60.5912C256.397 83.3138 259.682 109.636 253 109.591C246.581 109.015 240.512 110.903 240.5 104.591C240.5 104.591 244 72.0911 243 74.5912C242 77.0912 232.491 109.807 227 109.591H216Z" stroke="white" stroke-width="3"/>
<path d="M11 42.5H16V26.5L26 42.5L30.5 39.5L21.5 20L28.5 7L24.5 4L16 18.5V5.5H11V42.5Z" fill="white"/>
<path d="M90 42.5H95.5L93.5 16L99 24L103.5 16.5L105.5 42L110.5 41.5L108.5 2H104L99 12.5L93.5 3.5H88L90 42.5Z" fill="white"/>
<path d="M142.5 42.5H148L149 27H154.5V42.5H159.5L160 4.5H155V20H149L148 4.5H143L142.5 42.5Z" fill="white"/>
<path d="M168 4.5L167 42.5H173V27H179.5V42.5L184.5 42L185.5 4.5H181L179.5 19.5H173V4.5H168Z" fill="white"/>
<path d="M218.5 43H214V4H219L218.5 43Z" fill="white"/>
<path d="M227.5 43L245 42.5V37H233V27.5H239.5V21H232.5V13.5L243 13V6.5L225.5 7.5L227.5 43Z" fill="white"/>
<path fill-rule="evenodd" clip-rule="evenodd" d="M64.5 42.5L62.5 4.5L77 5.5C79.6707 6.13995 80.5835 7.66793 81.5 12L81 22.5C80.2849 25.3171 79.2167 26.382 75 26.5C72.3678 27.0425 71.2391 27.8209 71 30.5V42.5H64.5ZM74.5 19.5L69.5 20V11H74.5V19.5Z" fill="white"/>
<path fill-rule="evenodd" clip-rule="evenodd" d="M36.5 42.5L40 7C43.7968 2.4115 46.2062 2.41082 51 7L56 42.5H50.5L48.5 32.5H44L43 42.5H36.5ZM45.5 12L48 25.5H43L45.5 12Z" fill="white"/>
<path fill-rule="evenodd" clip-rule="evenodd" d="M116.5 42.5H123L124 33H129L130.5 42.5H136L130.5 5.5C125.847 1.90129 123.511 1.87905 120 6L116.5 42.5ZM129 26H123.5L126 12L129 26Z" fill="white"/>
<path fill-rule="evenodd" clip-rule="evenodd" d="M191.5 5.5H196L198 22.5L207.5 23.5V42L193.5 42.5L191.5 5.5ZM198 37.5V29.5H203.5V37.5H198Z" fill="white"/>
<path d="M11 42.5H16V26.5L26 42.5L30.5 39.5L21.5 20L28.5 7L24.5 4L16 18.5V5.5H11V42.5Z" stroke="white" stroke-width="3"/>
<path d="M90 42.5H95.5L93.5 16L99 24L103.5 16.5L105.5 42L110.5 41.5L108.5 2H104L99 12.5L93.5 3.5H88L90 42.5Z" stroke="white" stroke-width="3"/>
<path d="M142.5 42.5H148L149 27H154.5V42.5H159.5L160 4.5H155V20H149L148 4.5H143L142.5 42.5Z" stroke="white" stroke-width="3"/>
<path d="M168 4.5L167 42.5H173V27H179.5V42.5L184.5 42L185.5 4.5H181L179.5 19.5H173V4.5H168Z" stroke="white" stroke-width="3"/>
<path d="M218.5 43H214V4H219L218.5 43Z" stroke="white" stroke-width="3"/>
<path d="M227.5 43L245 42.5V37H233V27.5H239.5V21H232.5V13.5L243 13V6.5L225.5 7.5L227.5 43Z" stroke="white" stroke-width="3"/>
<path fill-rule="evenodd" clip-rule="evenodd" d="M64.5 42.5L62.5 4.5L77 5.5C79.6707 6.13995 80.5835 7.66793 81.5 12L81 22.5C80.2849 25.3171 79.2167 26.382 75 26.5C72.3678 27.0425 71.2391 27.8209 71 30.5V42.5H64.5ZM74.5 19.5L69.5 20V11H74.5V19.5Z" stroke="white" stroke-width="3"/>
<path fill-rule="evenodd" clip-rule="evenodd" d="M36.5 42.5L40 7C43.7968 2.4115 46.2062 2.41082 51 7L56 42.5H50.5L48.5 32.5H44L43 42.5H36.5ZM45.5 12L48 25.5H43L45.5 12Z" stroke="white" stroke-width="3"/>
<path fill-rule="evenodd" clip-rule="evenodd" d="M116.5 42.5H123L124 33H129L130.5 42.5H136L130.5 5.5C125.847 1.90129 123.511 1.87905 120 6L116.5 42.5ZM129 26H123.5L126 12L129 26Z" stroke="white" stroke-width="3"/>
<path fill-rule="evenodd" clip-rule="evenodd" d="M191.5 5.5H196L198 22.5L207.5 23.5V42L193.5 42.5L191.5 5.5ZM198 37.5V29.5H203.5V37.5H198Z" stroke="white" stroke-width="3"/>
</svg>
