<svg width="305" height="135" viewBox="0 0 305 135" fill="none" xmlns="http://www.w3.org/2000/svg">
<path d="M173 57.5912C167.522 57.6188 169.963 29.5613 169 6.59118C169.344 1.48978 175.366 2.74956 182 2.09118C187.16 2.99146 184.647 30.5158 183.761 37.1819C185.423 30.1749 194.616 0.136824 201.5 2.09118C208.526 2.70771 213.815 1.83749 214 8.59118C213.397 31.3138 216.682 57.6361 210 57.5912C203.581 57.0145 197.512 58.903 197.5 52.5912C197.5 52.5912 201 20.0911 200 22.5912C199 25.0912 189.491 57.8073 184 57.5912H173Z" fill="#ED600A"/>
<path d="M173 57.5912C167.522 57.6188 169.963 29.5613 169 6.59118C169.344 1.48978 175.366 2.74956 182 2.09118C187.977 3.134 183.659 39.8993 183.5 38.5912C183.341 37.283 193.847 -0.0814332 201.5 2.09118C208.526 2.70771 213.815 1.83749 214 8.59118C213.397 31.3138 216.682 57.6361 210 57.5912C203.581 57.0145 197.512 58.903 197.5 52.5912C197.5 52.5912 201 20.0911 200 22.5912C199 25.0912 189.491 57.8073 184 57.5912H173Z" stroke="white" stroke-width="3"/>
<path d="M69 130.591C63.522 130.619 65.9628 102.561 65 79.5912C65.3443 74.4898 71.3664 75.7496 78 75.0912C83.1603 75.9915 80.647 103.516 79.7613 110.182C81.4233 103.175 90.6156 73.1368 97.5 75.0912C104.526 75.7077 109.815 74.8375 110 81.5912C109.397 104.314 112.682 130.636 106 130.591C99.5814 130.015 93.5119 131.903 93.5 125.591C93.5 125.591 97 93.0911 96 95.5912C95 98.0912 85.4909 130.807 80 130.591H69Z" fill="#ED600A"/>
<path d="M69 130.591C63.522 130.619 65.9628 102.561 65 79.5912C65.3443 74.4898 71.3664 75.7496 78 75.0912C83.9774 76.134 79.6587 112.899 79.5 111.591C79.3413 110.283 89.8467 72.9186 97.5 75.0912C104.526 75.7077 109.815 74.8375 110 81.5912C109.397 104.314 112.682 130.636 106 130.591C99.5814 130.015 93.5119 131.903 93.5 125.591C93.5 125.591 97 93.0911 96 95.5912C95 98.0912 85.4909 130.807 80 130.591H69Z" stroke="white" stroke-width="3"/>
<path fill-rule="evenodd" clip-rule="evenodd" d="M55.083 57.7358C50.9128 58.2629 47.6076 58.6807 47.5601 51.8868C47.6941 45.4823 47.4798 38.9852 47.2788 32.89C46.704 15.4658 46.2377 1.32639 54.3266 2.02481C54.5578 2.02351 54.7871 2.0222 55.0146 2.02089C67.0526 1.95179 74.0116 1.91184 78.6859 6.77357C85.3985 21.4598 84.1809 28.2261 75.7086 38.432C71.2321 41.2195 68.4133 42.1185 62.717 42.1255C62.7484 42.7195 62.7804 43.3001 62.8116 43.8664C63.2847 52.4644 63.5778 57.7895 59.1984 57.427C57.7907 57.3936 56.3941 57.5701 55.083 57.7358ZM62.717 14.1605V28.6706C66.0953 28.5287 67.1836 26.9741 68.1302 22.339C67.8457 16.5641 66.8281 14.5077 62.717 14.1605Z" fill="#F16307" stroke="white" stroke-width="3"/>
<path fill-rule="evenodd" clip-rule="evenodd" d="M164.083 130.736C159.913 131.263 156.608 131.681 156.56 124.887C156.694 118.482 156.48 111.985 156.279 105.89C155.704 88.4658 155.238 74.3264 163.327 75.0248C163.558 75.0235 163.787 75.0222 164.015 75.0209C176.053 74.9518 183.012 74.9118 187.686 79.7736C194.399 94.4598 193.181 101.226 184.709 111.432C180.232 114.22 177.413 115.118 171.717 115.125C171.748 115.72 171.78 116.3 171.812 116.866C172.285 125.464 172.578 130.79 168.198 130.427C166.791 130.394 165.394 130.57 164.083 130.736ZM171.717 87.1605V101.671C175.095 101.529 176.184 99.9741 177.13 95.339C176.846 89.5641 175.828 87.5077 171.717 87.1605Z" fill="#F16307" stroke="white" stroke-width="3"/>
<path fill-rule="evenodd" clip-rule="evenodd" d="M101.26 47.4491C100.93 53.8501 100.22 56.9131 94.4956 57.9721C87.8576 57.8396 85.2791 57.0143 86.1704 51.9214C87.6905 45.5395 88.9257 38.9521 90.0891 32.7479C93.2145 16.0795 95.8213 2.17763 102.04 2.46321C110.087 1.36425 113.869 1.67705 114.788 9.56624C116.041 16.0936 117.763 22.9651 119.379 29.4156C123.369 45.3373 126.716 58.6931 120.772 57.9721C120.173 57.9657 119.591 57.9671 119.028 57.9685C112.963 57.9829 109.07 57.9922 108.024 48.2383L101.26 47.4491ZM102.04 36.3999H108.024L104.902 20.3523L102.04 36.3999Z" fill="#EE6306" stroke="white" stroke-width="3"/>
<path fill-rule="evenodd" clip-rule="evenodd" d="M280.26 47.4491C279.93 53.8501 279.22 56.9131 273.496 57.9721C266.858 57.8396 264.279 57.0143 265.17 51.9214C266.69 45.5395 267.926 38.9521 269.089 32.7479C272.215 16.0795 274.821 2.17763 281.04 2.46321C289.087 1.36425 292.869 1.67705 293.788 9.56624C295.041 16.0936 296.763 22.9651 298.379 29.4156C302.369 45.3373 305.716 58.6931 299.772 57.9721C299.173 57.9657 298.591 57.9671 298.028 57.9685C291.963 57.9829 288.07 57.9922 287.024 48.2383L280.26 47.4491ZM281.04 36.3999H287.024L283.902 20.3523L281.04 36.3999Z" fill="#EE6306" stroke="white" stroke-width="3"/>
<path d="M116.921 124.79C117.507 132.105 121.966 130.98 128.409 130.881C135.132 131.598 131.342 108.849 131.282 88.776C139.577 88.8989 150.531 89.7508 149.822 82.1554C152.065 73.6219 132.586 74.7413 122.665 75.5355C112.744 76.3296 116.802 97.0684 116.921 124.79Z" fill="#EF6406" stroke="white" stroke-width="3"/>
<path d="M231.31 79.1045C232.186 104.15 229.285 136.158 235.628 132.183C242.338 132.052 245.56 131.597 245.612 126.739C245.321 102.39 247.836 72.9928 242.914 75.8381C236.09 75.4435 231.058 74.3415 231.31 79.1045Z" fill="#F06406"/>
<path fill-rule="evenodd" clip-rule="evenodd" d="M203.246 75.2937C211.893 74.4179 214.532 75.4416 214.04 80.7377V92.4423C225.4 95.6895 229.973 99.1463 231.31 111.496C230.106 125.751 225.583 129.686 214.04 133C203.886 132.197 199.441 131.047 198.928 124.834C198.83 119.116 198.627 113.489 198.435 108.192C197.706 88.0355 197.15 72.6628 203.246 75.2937ZM212.96 120.751V105.236C216.935 105.311 218.299 107.225 219.706 112.857C218.69 118.172 217.405 120.165 212.96 120.751Z" fill="#F06406"/>
<path d="M231.31 79.1045C232.186 104.15 229.285 136.158 235.628 132.183C242.338 132.052 245.56 131.597 245.612 126.739C245.321 102.39 247.836 72.9928 242.914 75.8381C236.09 75.4435 231.058 74.3415 231.31 79.1045Z" stroke="white" stroke-width="3"/>
<path fill-rule="evenodd" clip-rule="evenodd" d="M203.246 75.2937C211.893 74.4179 214.532 75.4416 214.04 80.7377V92.4423C225.4 95.6895 229.973 99.1463 231.31 111.496C230.106 125.751 225.583 129.686 214.04 133C203.886 132.197 199.441 131.047 198.928 124.834C198.83 119.116 198.627 113.489 198.435 108.192C197.706 88.0355 197.15 72.6628 203.246 75.2937ZM212.96 120.751V105.236C216.935 105.311 218.299 107.225 219.706 112.857C218.69 118.172 217.405 120.165 212.96 120.751Z" stroke="white" stroke-width="3"/>
<path d="M220.398 53.6107C221.128 59.8835 226.234 57.3936 231.622 57.711C240.558 57.9679 238.734 37.8503 241.315 19.2703L243.356 53.6107C243.332 59.1736 248.777 57.9706 256.11 57.711C263.132 58.9792 255.417 30.8662 253.304 9.53195C252.591 3.40438 246.163 3.84593 235.448 4.15025C227.322 2.72143 227.946 24.8315 224.735 45.1537C220.818 45.2711 219.173 46.1334 220.398 53.6107Z" fill="#EF6406" stroke="white" stroke-width="3"/>
<path fill-rule="evenodd" clip-rule="evenodd" d="M130.184 8.67499C130.353 15.1281 130.236 21.8239 130.126 28.1059C129.838 44.6199 129.6 58.2745 134.732 57.1444C144.596 58.6837 149.026 58.1743 155.45 55.3864C166.288 43.6509 164.715 37.9476 155.45 28.5148C165.116 18.2054 165.809 10.935 154.187 5.41022C142.564 -0.114597 131.734 1.14372 130.184 8.67499ZM142.564 34.7932V47.0989C147.111 46.96 148.429 45.3738 149.386 40.8205C148.725 35.8953 147.073 34.7724 142.564 34.7932ZM142.564 25.25V13.9489C146.487 13.3366 147.805 14.9379 149.386 19.4739C148.032 23.419 146.587 24.7775 142.564 25.25Z" fill="#EF6305" stroke="white" stroke-width="3"/>
<path d="M2.29378 53.1332C1.86223 58.9318 7.1075 57.8921 14.0472 57.927C17.8848 57.892 15.4224 31.9195 15.65 11.5875H28.2048V54.9975C28.4531 57.9537 30.724 58.1692 35.6843 57.927C38.8203 57.9651 39.6905 56.8955 39.9583 53.1332C39.713 30.6106 43.6874 2.93845 37.5542 2H6.03351C-0.146258 2.47622 2.73771 28.9477 2.29378 53.1332Z" fill="#EE6406" stroke="white" stroke-width="3"/>
</svg>
