<svg width="141" height="141" viewBox="0 0 141 141" fill="none" xmlns="http://www.w3.org/2000/svg">
<rect width="141" height="141" rx="10" fill="#303030"/>
<path d="M67.9294 102.433L71.4887 101.885H73.1695L74.9492 102.104L77.4209 102.981L80.5847 104.076L83.1554 104.843L85.0339 105.171H87.209L89.0876 104.624L90.6695 103.747L92.0537 102.214L93.0424 100.68L93.4378 98.4891L93.5367 96.4078L93.0424 93.9978L91.8559 90.6018L90.3729 87.3154L88.8898 84.7959L86.9124 81.9477L84.4407 78.7708L82.4633 76.5799L80.1893 74.389L77.4209 71.979L75.3446 70.8835L73.3672 70.1167H71.0932L68.9181 70.4453L66.2486 71.7599L63.2825 74.0604L59.822 77.2372L55.8672 82.1668L53.6921 85.3436L51.3192 90.1636L50.3305 93.45L49.7373 95.86V98.051L50.3305 100.351L51.9124 102.981L53.9887 104.733L56.2627 105.5H58.5367L61.3051 104.843L64.5678 103.747L67.9294 102.433Z" fill="white"/>
<path d="M49.7373 82.6056L50.6271 81.9483L51.2203 81.5102L51.8136 80.6338L52.4068 79.3192L52.7034 77.7856L52.9011 76.471V74.8278L52.7034 73.0751L52.5056 71.651L52.209 70.2269L51.6158 68.4742L50.8249 66.831L50.0339 65.2973L49.1441 63.9828L48.0565 62.6682L46.9689 61.4632L45.7825 60.5868L44.0028 59.82L42.4209 59.3818H40.839L39.2571 59.6009L38.2684 60.2582L37.2797 61.1346L36.5876 62.4491L35.7966 64.7496L35.5 67.1596L35.5989 68.8028L36.1921 70.8842L36.8842 73.0751L37.5763 74.8278L38.7627 76.7997L40.9379 79.5383L42.1243 80.7433L43.7062 81.8388L45.2881 82.6056L47.1667 82.9343H48.7486L49.7373 82.6056Z" fill="white"/>
<path d="M62.7705 61.3507L63.7588 60.8979L64.4177 60.5961L65.1536 59.8645L65.9664 58.7031L66.5269 57.2627L66.9518 56.016L67.2406 54.4043L67.3546 52.6424L67.4109 51.2029L67.3702 49.7421L67.0964 47.8949L66.6093 46.1125L66.103 44.4376L65.4612 42.9562L64.6254 41.4322L63.7704 40.0157L62.7607 38.9001L61.1498 37.7641L59.6752 36.993L58.1235 36.6517L56.5334 36.5254L55.4481 36.9568L54.3243 37.6031L53.4145 38.7432L52.2344 40.829L51.52 43.1289L51.3282 44.762L51.5443 46.9315L51.8382 49.2298L52.209 51.0983L53.0262 53.2884L54.6785 56.4438L55.6305 57.8817L56.9896 59.2975L58.4065 60.3909L60.1914 61.1185L61.743 61.4597L62.7705 61.3507Z" fill="white"/>
<path d="M78.8701 61.3507L77.8818 60.8979L77.2229 60.5961L76.4871 59.8645L75.6742 58.7031L75.1138 57.2627L74.6888 56.016L74.4 54.4043L74.286 52.6424L74.2297 51.2029L74.2704 49.7421L74.5443 47.8949L75.0313 46.1125L75.5377 44.4376L76.1795 42.9562L77.0152 41.4322L77.8702 40.0157L78.88 38.9001L80.4908 37.7641L81.9655 36.993L83.5171 36.6517L85.1072 36.5254L86.1925 36.9568L87.3163 37.6031L88.2262 38.7432L89.4062 40.829L90.1207 43.1289L90.3124 44.762L90.0963 46.9315L89.8025 49.2298L89.4316 51.0983L88.6144 53.2884L86.9621 56.4438L86.0101 57.8817L84.651 59.2975L83.2341 60.3909L81.4493 61.1185L79.8976 61.4597L78.8701 61.3507Z" fill="white"/>
<path d="M91.2627 80.633L90.3729 79.9757L89.7797 79.5375L89.1864 78.6611L88.5932 77.3466L88.2966 75.8129L88.0989 74.4984V72.8552L88.2966 71.1024L88.4944 69.6783L88.791 68.2542L89.3842 66.5015L90.1751 64.8583L90.9661 63.3247L91.8559 62.0101L92.9435 60.6956L94.0311 59.4906L95.2175 58.6142L96.9972 57.8474L98.5791 57.4092H100.161L101.743 57.6283L102.732 58.2855L103.72 59.1619L104.412 60.4765L105.203 62.7769L105.5 65.187L105.401 66.8301L104.808 68.9115L104.116 71.1024L103.424 72.8552L102.237 74.827L100.062 77.5657L98.8757 78.7707L97.2938 79.8661L95.7119 80.633L93.8333 80.9616H92.2514L91.2627 80.633Z" fill="white"/>
</svg>
